<?xml version="1.0" encoding="UTF-8"?><svg id="Layer_2" xmlns="http://www.w3.org/2000/svg" viewBox="0 0 524.17 399.8"><defs><style>.cls-1{fill:#1898af;}.cls-1,.cls-2{font-family:Montserrat-Bold, Montserrat;font-size:60px;}.cls-2,.cls-3{fill:#bd295b;}.cls-4{fill:#097286;}.cls-5{fill:#d64274;}</style></defs><g id="Layer_1-2"><g><text class="cls-2" transform="translate(476.59 383.84)"><tspan x="0" y="0">X</tspan></text><text class="cls-1" transform="translate(4.95 383.84)"><tspan x="0" y="0">M A T E R I A L</tspan></text><polygon class="cls-4" points="438 .51 524.17 49.66 524.17 251.87 438 301.15 438 .51"/><polygon class="cls-4" points="264.06 200.94 350.04 151.91 436.02 202.09 436.02 301.15 264.06 200.94"/><polygon class="cls-4" points="436.02 98.11 436.02 .51 87.32 200.36 87.32 301.15 436.02 98.11"/><polygon class="cls-3" points="175.02 51.19 175.02 148.09 259.15 99.64 175.02 51.19"/><polygon class="cls-3" points="172.6 51.19 172.6 148.09 88.47 99.64 172.6 51.19"/><polyline class="cls-3" points="87.32 97.15 171.7 48.89 87.32 0 87.32 97.79"/><polygon class="cls-5" points="84.51 0 0 48.89 84.51 97.79 84.51 0"/><polygon class="cls-5" points="0 51.19 0 148.09 83.97 99.64 0 51.19"/><polygon class="cls-5" points="0 150 84.51 198.45 85.02 102.13 0 150"/><polygon class="cls-5" points="0 152.68 0 249.1 83.97 200.89 0 152.68"/><polygon class="cls-5" points="85.02 203.33 85.02 301.15 0 252.24 85.02 203.33"/></g></g></svg>